<svg width="24" height="24" viewBox="0 0 24 24"
    xmlns="http://www.w3.org/2000/svg">
    <g id="Component 18">
        <path id="Vector" d="M8.03825 3.66895C7.27574 3.66895 4.97686 4.60153 4.56443 4.78791C4.15199 4.97429 3.6942 5.55609 3.17476 6.51632C2.6546 7.47655 2.23721 8.59905 1.55902 10.2502C0.881551 11.9014 0.723521 15.0847 0.746198 16.0562C0.768875 17.0278 0.880134 17.7868 1.87579 18.3615C2.87074 18.9355 3.75089 19.5364 4.6771 19.8978C5.60402 20.2593 6.23614 20.5193 6.66559 20.1579C7.09503 19.7965 7.37779 19.1637 7.37779 19.1637C7.37779 19.1637 7.78455 18.5989 7.01637 18.2601C6.24819 17.9207 5.8641 17.6833 5.89741 17.3332C5.93142 16.9831 5.98741 16.7911 6.17945 16.8365C6.3715 16.8818 6.82433 17.6946 8.56407 18.0674C10.3038 18.4401 11.9996 18.3842 11.9996 18.3842C11.9996 18.3842 13.6961 18.4408 15.4359 18.0674C17.1756 17.6946 17.6278 16.8818 17.8198 16.8365C18.0119 16.7911 18.0678 16.9831 18.1019 17.3325C18.1359 17.6833 17.7518 17.9207 16.9836 18.2601C16.2154 18.5989 16.6222 19.1637 16.6222 19.1637C16.6222 19.1637 16.9049 19.7958 17.3344 20.1579C17.7631 20.5193 18.3959 20.2593 19.3222 19.8978C20.2484 19.5364 21.1292 18.9362 22.1242 18.3615C23.1198 17.7868 23.2311 17.0278 23.2538 16.0562C23.2764 15.0854 23.1184 11.9014 22.4402 10.2502C21.7628 8.59905 21.3447 7.47655 20.8245 6.51632C20.3058 5.55609 19.8473 4.97429 19.4355 4.7872C19.0231 4.60153 16.7235 3.66895 15.961 3.66895C15.1985 3.66895 14.9731 4.20044 14.9731 4.20044L14.7074 4.78791C14.7074 4.78791 12.9216 4.44847 12.0117 4.44776C11.1018 4.44776 9.29257 4.78791 9.29257 4.78791L9.02683 4.19973C9.02683 4.19973 8.80147 3.66895 8.03825 3.66895ZM8.12117 10.7186H8.14951C9.26139 10.7186 10.1621 11.6916 10.1621 12.8914C10.1621 14.0918 9.26139 15.0641 8.14951 15.0641C7.03763 15.0641 6.13693 14.0918 6.13693 12.8914C6.13622 11.703 7.02062 10.7349 8.12117 10.7186ZM15.8505 10.7186H15.8788C16.9793 10.7349 17.863 11.7037 17.863 12.8914C17.863 14.0918 16.9623 15.0641 15.8505 15.0641C14.7379 15.0641 13.8379 14.0918 13.8379 12.8914C13.8379 11.6916 14.7379 10.7186 15.8505 10.7186Z" />
    </g>
</svg>
