<svg width="12" height="12" viewBox="0 0 12 12" fill="none"
    xmlns="http://www.w3.org/2000/svg">
    <g id="Frame 116047209">
        <g id="Group 2">
            <path id="Vector 30" d="M1 9.99998V3.69808C1 3.32999 1.20221 2.99167 1.5264 2.81734L5.5264 0.666414C5.82211 0.507399 6.17789 0.507399 6.4736 0.666414L10.4736 2.81734C10.7978 2.99167 11 3.32999 11 3.69808V9.99998C11 10.5523 10.5523 11 10 11H2C1.44772 11 1 10.5523 1 9.99998Z" fill="white" />
            <g id="Vector 31">
                <path d="M6.49831 3.64426L7.55713 4.25881C7.86541 4.43774 8.05515 4.76724 8.05515 5.12369V5.99996H3.9375V5.12369C3.9375 4.76724 4.12723 4.43774 4.43552 4.25881L5.49434 3.64426C5.80475 3.4641 6.1879 3.4641 6.49831 3.64426Z" fill="white"/>
                <path d="M8.64338 8.35291H4.9375C4.38522 8.35291 3.9375 7.90519 3.9375 7.35291V5.99996M3.9375 5.99996V5.12369C3.9375 4.76724 4.12723 4.43774 4.43552 4.25881L5.49434 3.64426C5.80475 3.4641 6.1879 3.4641 6.49831 3.64426L7.55713 4.25881C7.86541 4.43774 8.05515 4.76724 8.05515 5.12369V5.99996H3.9375Z" />
            </g>
        </g>
    </g>
</svg>
