<svg width="30" height="30" viewBox="0 0 30 30"
    xmlns="http://www.w3.org/2000/svg">
    <g id="icons8-github">
        <path id="Vector" d="M14.9995 3.47998C8.63757 3.47998 3.47949 8.63806 3.47949 15C3.47949 20.3981 7.19661 24.9149 12.2078 26.1648C12.1541 26.0093 12.1195 25.8288 12.1195 25.6051V23.6361C11.652 23.6361 10.8686 23.6361 10.6718 23.6361C9.88365 23.6361 9.18285 23.2973 8.84301 22.6675C8.46573 21.9677 8.40045 20.8973 7.46541 20.2425C7.18797 20.0246 7.39917 19.776 7.71885 19.8096C8.30925 19.9766 8.79885 20.3817 9.25965 20.9827C9.71853 21.5846 9.93453 21.7209 10.7918 21.7209C11.2075 21.7209 11.8296 21.6969 12.4152 21.6048C12.7301 20.8051 13.2744 20.0688 13.9397 19.7213C10.1035 19.3267 8.27277 17.4182 8.27277 14.8272C8.27277 13.7117 8.74797 12.6326 9.55533 11.7235C9.29037 10.8211 8.95725 8.98078 9.65709 8.27998C11.3832 8.27998 12.4267 9.39934 12.6773 9.70174C13.5374 9.40702 14.4821 9.23998 15.4747 9.23998C16.4693 9.23998 17.4177 9.40702 18.2798 9.70366C18.5275 9.40318 19.572 8.27998 21.3019 8.27998C22.0046 8.98174 21.6677 10.8297 21.3998 11.7302C22.2024 12.6374 22.6747 13.7136 22.6747 14.8272C22.6747 17.4163 20.8469 19.3238 17.0165 19.7203C18.0705 20.2704 18.8395 21.816 18.8395 22.9805V25.6051C18.8395 25.7049 18.8174 25.7769 18.8059 25.8624C23.2949 24.2889 26.5195 20.0265 26.5195 15C26.5195 8.63806 21.3614 3.47998 14.9995 3.47998Z" />
    </g>
</svg>
