<svg xmlns="http://www.w3.org/2000/svg" width="21" height="22" viewBox="0 0 21 22" fill="none">
    <path d="M2 19V7.1684C2 6.80031 2.20221 6.46198 2.5264 6.28766L10.0264 2.25467C10.3221 2.09566 10.6779 2.09566 10.9736 2.25467L18.4736 6.28766C18.7978 6.46198 19 6.80031 19 7.1684V19C19 19.5523 18.5523 20 18 20H3C2.44772 20 2 19.5523 2 19Z" stroke-width="3"/>
    <path d="M15 15.5H8C7.44772 15.5 7 15.0523 7 14.5V11.5M7 11.5V9.60725C7 9.25081 7.18973 8.92131 7.49802 8.74238L9.99802 7.29136C10.3084 7.11119 10.6916 7.11119 11.002 7.29136L13.502 8.74238C13.8103 8.92131 14 9.25081 14 9.60726V11.5H7Z" stroke-width="3"/>
</svg>