<svg width="20" height="21" viewBox="0 0 20 21" fill="none" xmlns="http://www.w3.org/2000/svg">
<path d="M6.66927 5.50004C6.66927 5.94207 6.49368 6.36599 6.18112 6.67855C5.86855 6.99111 5.44463 7.16671 5.0026 7.16671C4.56058 7.16671 4.13665 6.99111 3.82409 6.67855C3.51153 6.36599 3.33594 5.94207 3.33594 5.50004C3.33594 5.05801 3.51153 4.63409 3.82409 4.32153C4.13665 4.00897 4.56058 3.83337 5.0026 3.83337C5.44463 3.83337 5.86855 4.00897 6.18112 4.32153C6.49368 4.63409 6.66927 5.05801 6.66927 5.50004ZM6.66927 10.5C6.66927 10.9421 6.49368 11.366 6.18112 11.6786C5.86855 11.9911 5.44463 12.1667 5.0026 12.1667C4.56058 12.1667 4.13665 11.9911 3.82409 11.6786C3.51153 11.366 3.33594 10.9421 3.33594 10.5C3.33594 10.058 3.51153 9.63409 3.82409 9.32153C4.13665 9.00897 4.56058 8.83337 5.0026 8.83337C5.44463 8.83337 5.86855 9.00897 6.18112 9.32153C6.49368 9.63409 6.66927 10.058 6.66927 10.5ZM5.0026 17.1667C5.44463 17.1667 5.86855 16.9911 6.18112 16.6786C6.49368 16.366 6.66927 15.9421 6.66927 15.5C6.66927 15.058 6.49368 14.6341 6.18112 14.3215C5.86855 14.009 5.44463 13.8334 5.0026 13.8334C4.56058 13.8334 4.13665 14.009 3.82409 14.3215C3.51153 14.6341 3.33594 15.058 3.33594 15.5C3.33594 15.9421 3.51153 16.366 3.82409 16.6786C4.13665 16.9911 4.56058 17.1667 5.0026 17.1667ZM11.6693 5.50004C11.6693 5.94207 11.4937 6.36599 11.1811 6.67855C10.8686 6.99111 10.4446 7.16671 10.0026 7.16671C9.56058 7.16671 9.13665 6.99111 8.82409 6.67855C8.51153 6.36599 8.33594 5.94207 8.33594 5.50004C8.33594 5.05801 8.51153 4.63409 8.82409 4.32153C9.13665 4.00897 9.56058 3.83337 10.0026 3.83337C10.4446 3.83337 10.8686 4.00897 11.1811 4.32153C11.4937 4.63409 11.6693 5.05801 11.6693 5.50004ZM10.0026 12.1667C10.4446 12.1667 10.8686 11.9911 11.1811 11.6786C11.4937 11.366 11.6693 10.9421 11.6693 10.5C11.6693 10.058 11.4937 9.63409 11.1811 9.32153C10.8686 9.00897 10.4446 8.83337 10.0026 8.83337C9.56058 8.83337 9.13665 9.00897 8.82409 9.32153C8.51153 9.63409 8.33594 10.058 8.33594 10.5C8.33594 10.9421 8.51153 11.366 8.82409 11.6786C9.13665 11.9911 9.56058 12.1667 10.0026 12.1667ZM11.6693 15.5C11.6693 15.9421 11.4937 16.366 11.1811 16.6786C10.8686 16.9911 10.4446 17.1667 10.0026 17.1667C9.56058 17.1667 9.13665 16.9911 8.82409 16.6786C8.51153 16.366 8.33594 15.9421 8.33594 15.5C8.33594 15.058 8.51153 14.6341 8.82409 14.3215C9.13665 14.009 9.56058 13.8334 10.0026 13.8334C10.4446 13.8334 10.8686 14.009 11.1811 14.3215C11.4937 14.6341 11.6693 15.058 11.6693 15.5ZM15.0026 7.16671C15.4446 7.16671 15.8686 6.99111 16.1811 6.67855C16.4937 6.36599 16.6693 5.94207 16.6693 5.50004C16.6693 5.05801 16.4937 4.63409 16.1811 4.32153C15.8686 4.00897 15.4446 3.83337 15.0026 3.83337C14.5606 3.83337 14.1367 4.00897 13.8241 4.32153C13.5115 4.63409 13.3359 5.05801 13.3359 5.50004C13.3359 5.94207 13.5115 6.36599 13.8241 6.67855C14.1367 6.99111 14.5606 7.16671 15.0026 7.16671ZM16.6693 10.5C16.6693 10.9421 16.4937 11.366 16.1811 11.6786C15.8686 11.9911 15.4446 12.1667 15.0026 12.1667C14.5606 12.1667 14.1367 11.9911 13.8241 11.6786C13.5115 11.366 13.3359 10.9421 13.3359 10.5C13.3359 10.058 13.5115 9.63409 13.8241 9.32153C14.1367 9.00897 14.5606 8.83337 15.0026 8.83337C15.4446 8.83337 15.8686 9.00897 16.1811 9.32153C16.4937 9.63409 16.6693 10.058 16.6693 10.5ZM15.0026 17.1667C15.4446 17.1667 15.8686 16.9911 16.1811 16.6786C16.4937 16.366 16.6693 15.9421 16.6693 15.5C16.6693 15.058 16.4937 14.6341 16.1811 14.3215C15.8686 14.009 15.4446 13.8334 15.0026 13.8334C14.5606 13.8334 14.1367 14.009 13.8241 14.3215C13.5115 14.6341 13.3359 15.058 13.3359 15.5C13.3359 15.9421 13.5115 16.366 13.8241 16.6786C14.1367 16.9911 14.5606 17.1667 15.0026 17.1667Z" fill="#021A12"/>
</svg>
