<svg width="30" height="31" viewBox="0 0 30 31"
    xmlns="http://www.w3.org/2000/svg">
    <g id="material-symbols:play-circle-rounded">
        <path id="Vector" d="M11.4286 11.6785V19.3214C11.4286 19.869 11.6786 20.2857 12.1786 20.5714C12.6786 20.8571 13.1667 20.8333 13.6429 20.4999L19.5715 16.7142C20.0239 16.4285 20.2501 16.0238 20.2501 15.4999C20.2501 14.9761 20.0239 14.5714 19.5715 14.2857L13.6429 10.4999C13.1667 10.1666 12.6786 10.1428 12.1786 10.4285C11.6786 10.7142 11.4286 11.1309 11.4286 11.6785ZM15.0001 29.7857C13.0239 29.7857 11.1667 29.4104 9.42864 28.6599C7.69055 27.9104 6.17864 26.8928 4.89293 25.6071C3.60721 24.3214 2.58959 22.8095 1.84007 21.0714C1.08959 19.3333 0.714355 17.4761 0.714355 15.4999C0.714355 13.5238 1.08959 11.6666 1.84007 9.92852C2.58959 8.19042 3.60721 6.67852 4.89293 5.39281C6.17864 4.10709 7.69055 3.089 9.42864 2.33852C11.1667 1.589 13.0239 1.21423 15.0001 1.21423C16.9763 1.21423 18.8334 1.589 20.5715 2.33852C22.3096 3.089 23.8215 4.10709 25.1072 5.39281C26.3929 6.67852 27.4105 8.19042 28.1601 9.92852C28.9105 11.6666 29.2858 13.5238 29.2858 15.4999C29.2858 17.4761 28.9105 19.3333 28.1601 21.0714C27.4105 22.8095 26.3929 24.3214 25.1072 25.6071C23.8215 26.8928 22.3096 27.9104 20.5715 28.6599C18.8334 29.4104 16.9763 29.7857 15.0001 29.7857Z"/>
    </g>
</svg>
