<svg width="24" height="24" viewBox="0 0 24 24" fill="none" xmlns="http://www.w3.org/2000/svg">
<path fill-rule="evenodd" clip-rule="evenodd" d="M8.16303 4.67038C8.16303 3.19987 9.35091 2 10.8258 2H13.1743C14.6492 2 15.8371 3.19988 15.8371 4.67039C15.8371 5.19348 16.3946 5.50427 16.8296 5.25195C18.1059 4.51174 19.7358 4.95284 20.4698 6.2301L21.6441 8.27319C22.3766 9.54779 21.9437 11.1797 20.6701 11.9184C20.226 12.176 20.226 12.8239 20.6701 13.0815C21.9437 13.8202 22.3766 15.4521 21.6441 16.7267L20.4698 18.7698C19.7358 20.047 18.1059 20.4882 16.8296 19.7479C16.3946 19.4956 15.8371 19.8064 15.8371 20.3295C15.8371 21.8001 14.6492 23 13.1743 23H10.8259C9.35092 23 8.16303 21.8001 8.16303 20.3295C8.16303 19.8064 7.60553 19.4956 7.17053 19.7479C5.89427 20.4882 4.26443 20.047 3.53037 18.7698L2.35614 16.7267C1.6236 15.4521 2.0565 13.8202 3.33007 13.0815C3.77423 12.8239 3.77423 12.176 3.33007 11.9183C2.0565 11.1797 1.6236 9.54779 2.35614 8.27319L3.53037 6.23008C4.26443 4.95283 5.89429 4.51173 7.17054 5.25193C7.60558 5.50425 8.16303 5.19347 8.16303 4.67038ZM10.8258 4C10.4641 4 10.163 4.29584 10.163 4.67038C10.163 6.71903 7.94913 8.01555 6.16712 6.98201C5.85275 6.79968 5.44866 6.90603 5.26439 7.22667L4.09016 9.26978C3.90435 9.59308 4.01644 10.0044 4.33349 10.1883C6.10643 11.2166 6.10642 13.7833 4.33349 14.8116C4.01644 14.9955 3.90435 15.4068 4.09016 15.7301L5.26438 17.7732C5.44867 18.0938 5.85274 18.2002 6.16711 18.0179C7.94918 16.9843 10.163 18.2809 10.163 20.3295C10.163 20.7041 10.4641 21 10.8259 21H13.1743C13.536 21 13.8371 20.7041 13.8371 20.3295C13.8371 18.2809 16.051 16.9843 17.8331 18.0179C18.1474 18.2002 18.5515 18.0938 18.7358 17.7732L19.91 15.7301C20.0958 15.4068 19.9838 14.9955 19.6667 14.8116C17.8938 13.7833 17.8938 11.2166 19.6667 10.1883C19.9838 10.0044 20.0958 9.59308 19.91 9.26978L18.7358 7.22668C18.5515 6.90604 18.1474 6.79968 17.833 6.98202C16.051 8.01556 13.8371 6.71905 13.8371 4.67039C13.8371 4.29584 13.5361 4 13.1743 4H10.8258ZM12.0001 9.7C10.4675 9.7 9.21735 10.9493 9.21735 12.5C9.21735 14.0507 10.4675 15.3 12.0001 15.3C13.5326 15.3 14.7828 14.0507 14.7828 12.5C14.7828 10.9493 13.5326 9.7 12.0001 9.7ZM7.21735 12.5C7.21735 9.85333 9.35435 7.7 12.0001 7.7C14.6458 7.7 16.7828 9.85333 16.7828 12.5C16.7828 15.1467 14.6458 17.3 12.0001 17.3C9.35435 17.3 7.21735 15.1467 7.21735 12.5Z" fill="#021A12"/>
</svg>
