<svg width="25" height="24" viewBox="0 0 25 24" fill="none" xmlns="http://www.w3.org/2000/svg">
<g id="Icons Equiteez 24">
<path id="Vector" d="M6.29 15.6C6.02 15.15 5.48 15.06 5.03 15.24C4.58 15.51 4.49 16.05 4.67 16.5C4.94 16.95 5.48 17.04 5.93 16.86C6.38 16.59 6.47 16.05 6.29 15.6ZM5.93 7.14C5.48 6.96 4.94 7.05 4.67 7.5C4.49 7.95 4.58 8.49 5.03 8.76C5.48 8.94 6.02 8.85 6.29 8.4C6.47 7.95 6.38 7.41 5.93 7.14ZM19.97 8.76C20.42 8.49 20.51 7.95 20.33 7.5C20.06 7.05 19.52 6.96 19.07 7.14C18.62 7.41 18.53 7.95 18.71 8.4C18.98 8.85 19.52 8.94 19.97 8.76ZM5.3 12C5.3 11.46 4.94 11.1 4.4 11.1C3.86 11.1 3.5 11.46 3.5 12C3.5 12.54 3.86 12.9 4.4 12.9C4.94 12.9 5.3 12.54 5.3 12ZM8.18 18.12C7.73 18.21 7.37 18.75 7.55 19.2C7.64 19.65 8.18 20.01 8.63 19.83C9.08 19.74 9.44 19.2 9.26 18.75C9.17 18.3 8.72 18.03 8.18 18.12ZM20.6 11.1C20.06 11.1 19.7 11.46 19.7 12C19.7 12.54 20.06 12.9 20.6 12.9C21.14 12.9 21.5 12.54 21.5 12C21.5 11.46 21.14 11.1 20.6 11.1ZM19.97 15.24C19.52 14.97 18.98 15.15 18.71 15.6C18.44 16.05 18.62 16.59 19.07 16.86C19.52 17.13 20.06 16.95 20.33 16.5C20.51 16.05 20.42 15.51 19.97 15.24ZM17 4.17C16.55 3.9 16.01 4.08 15.74 4.53C15.47 4.98 15.65 5.52 16.1 5.79C16.55 6.06 17.09 5.88 17.36 5.43C17.54 4.98 17.45 4.44 17 4.17ZM16.82 18.12C16.37 18.03 15.83 18.3 15.74 18.75C15.65 19.2 15.92 19.74 16.37 19.83C16.82 19.92 17.36 19.65 17.45 19.2C17.54 18.75 17.27 18.3 16.82 18.12ZM12.5 19.2C11.96 19.2 11.6 19.56 11.6 20.1C11.6 20.64 11.96 21 12.5 21C13.04 21 13.4 20.64 13.4 20.1C13.4 19.56 13.04 19.2 12.5 19.2ZM12.5 3C11.96 3 11.6 3.36 11.6 3.9C11.6 4.44 11.96 4.8 12.5 4.8C13.04 4.8 13.4 4.44 13.4 3.9C13.4 3.36 13.04 3 12.5 3Z" fill="#021A12"/>
</g>
</svg>
