<svg width="16" height="16" viewBox="0 0 16 16"
    xmlns="http://www.w3.org/2000/svg">
    <path id="Vector" fill-rule="evenodd" clip-rule="evenodd" d="M8.45065 2.94456L9.9138 5.87571C9.98554 6.02304 10.1267 6.12602 10.291 6.15086L13.566 6.62254C13.6989 6.6406 13.8189 6.71008 13.8994 6.81553C13.9799 6.92098 14.0142 7.05366 13.9946 7.18406C13.9782 7.29126 13.9259 7.39003 13.846 7.46482L11.4741 9.75584C11.3542 9.86875 11.3005 10.0335 11.3312 10.1938L11.9028 13.4226C11.9441 13.6886 11.7612 13.9383 11.4913 13.9841C11.38 14.0012 11.266 13.9836 11.1655 13.9336L8.2449 12.4118C8.099 12.3329 7.92213 12.3329 7.77623 12.4118L4.8385 13.9448C4.59203 14.0691 4.28967 13.9767 4.15836 13.737C4.10717 13.6404 4.08913 13.5301 4.10693 13.4226L4.67847 10.1938C4.70611 10.0337 4.65282 9.87035 4.53558 9.75584L2.14653 7.46482C1.95116 7.27023 1.95116 6.95752 2.14653 6.76292C2.22627 6.69039 2.3254 6.64169 2.4323 6.62254L5.70725 6.15086C5.87076 6.12421 6.01119 6.02178 6.08446 5.87571L7.54762 2.94456C7.60543 2.82571 7.70964 2.73484 7.83662 2.69255C7.9636 2.65026 8.10258 2.66014 8.22204 2.71995C8.32059 2.76906 8.40067 2.84773 8.45065 2.94456Z" stroke-width="1.5" stroke-linecap="round" stroke-linejoin="round"/>
</svg>
