<svg width="22" height="22" viewBox="0 0 22 22"
    xmlns="http://www.w3.org/2000/svg">
    <g id="paper-plane-solid" clip-path="url(#clip0_1331_1501)">
        <path id="Vector" d="M21.6206 1.75542L18.9359 19.2675C18.8729 19.6781 18.6265 20.0361 18.2659 20.2399C18.0627 20.3546 17.8351 20.4127 17.6081 20.4127C17.4325 20.4127 17.2592 20.3783 17.0926 20.3084L11.9495 18.1527L9.81596 21.3711C9.65236 21.6527 9.37968 21.8004 9.08604 21.8004C8.60361 21.8004 8.21348 21.4081 8.21348 20.9229V16.8653C8.21348 16.5651 8.31299 16.2734 8.49631 16.0367L17.6102 4.25039L5.28958 15.4005L0.985107 13.5949C0.513087 13.3966 0.193199 12.9495 0.161736 12.3968C0.130274 11.8441 0.39116 11.3961 0.835451 11.1409L19.629 0.378843C20.0774 0.121119 20.6307 0.144829 21.0553 0.438158C21.4798 0.731488 21.7003 1.24326 21.6206 1.75542Z" />
    </g>
    <defs>
        <clipPath id="clip0_1331_1501">
            <rect width="21.4783" height="21.6" fill="white" transform="translate(0.15918 0.200195)"/>
        </clipPath>
    </defs>
</svg>
