<svg width="16" height="16" viewBox="0 0 16 16" fill="none" xmlns="http://www.w3.org/2000/svg">
<g id="Icons Equiteez 16">
<path id="Vector" d="M4.00984 4.52942H11.9898V12.5862C11.9898 13.3374 11.3846 13.9448 10.6398 13.9448H5.35984C4.61506 13.9448 4.00984 13.3374 4.00984 12.5862V4.52942ZM13.1898 12.5862V4.52942H13.52C13.8687 4.52942 14.15 4.24532 14.15 3.89667C14.15 3.54802 13.8687 3.26392 13.52 3.26392H13.1898H13.0398H10.3099V1.96551C10.3099 1.35024 9.81375 0.85 9.1999 0.85H6.7999C6.18606 0.85 5.6899 1.35024 5.6899 1.96551V3.26392H2.95984H2.80984H2.48C2.13125 3.26392 1.85 3.54802 1.85 3.89667C1.85 4.24532 2.13125 4.52942 2.48 4.52942H2.80984V12.5862C2.80984 14.0014 3.9507 15.15 5.35984 15.15H10.6398C12.049 15.15 13.1898 14.0014 13.1898 12.5862ZM9.1099 2.05516V3.26392H6.8899V2.05516H9.1099ZM6.91982 7.27566C6.91982 6.94368 6.652 6.67308 6.31982 6.67308C5.98764 6.67308 5.71982 6.94368 5.71982 7.27566V11.1377C5.71982 11.4697 5.98765 11.7403 6.31982 11.7403C6.652 11.7403 6.91982 11.4697 6.91982 11.1377V7.27566ZM10.28 7.27566C10.28 6.94368 10.0122 6.67308 9.67999 6.67308C9.34781 6.67308 9.07999 6.94368 9.07999 7.27566V11.1377C9.07999 11.4697 9.34781 11.7403 9.67999 11.7403C10.0122 11.7403 10.28 11.4697 10.28 11.1377V7.27566Z" fill="#021A12" stroke="#021A12" stroke-width="0.3" stroke-linecap="round"/>
</g>
</svg>
