<svg width="38" height="22" viewBox="0 0 38 22" fill="none" xmlns="http://www.w3.org/2000/svg">
<path opacity="0.5" d="M29.431 1.87403C29.4152 1.76223 29.3585 1.66067 29.2725 1.58768C29.1865 1.51477 29.0771 1.47508 28.9644 1.475H28.9643H21.9625C21.9261 1.4385 21.8838 1.40815 21.8372 1.38523C21.7651 1.34976 21.6851 1.33314 21.6049 1.33674C21.5246 1.34034 21.4465 1.36407 21.3779 1.40593C21.3093 1.44781 21.2526 1.50653 21.2136 1.57677C21.1745 1.64704 21.1547 1.72624 21.1563 1.80662C21.158 1.88699 21.1809 1.96534 21.2227 2.034C21.2645 2.10263 21.3235 2.15909 21.3936 2.19828C21.439 2.2236 21.488 2.24122 21.5387 2.25066L23.1629 4.67375H13.3287L11.5326 1.775H14.8214C14.9451 1.775 15.0646 1.72727 15.1533 1.64102C15.2421 1.55463 15.2929 1.43655 15.2929 1.3125C15.2929 1.18845 15.2421 1.07037 15.1533 0.98398C15.0646 0.89773 14.9451 0.85 14.8214 0.85H9.03571C8.91203 0.85 8.79258 0.89773 8.70387 0.98398C8.61501 1.07037 8.56429 1.18845 8.56429 1.3125C8.56429 1.43655 8.61501 1.55463 8.70387 1.64102C8.79258 1.72727 8.91203 1.775 9.03571 1.775H10.4287L12.5578 5.20988L10.7096 8.38121C9.78631 7.95029 8.77508 7.72586 7.75013 7.725H7.75C3.94903 7.725 0.85 10.732 0.85 14.4375C0.85 18.143 3.94903 21.15 7.75 21.15C11.3706 21.15 14.3453 18.4197 14.59 14.9H21.4232C21.4141 15.2143 21.3202 15.5906 21.0464 15.8923L21.0463 15.8923C20.7056 16.2679 20.1373 16.475 19.3214 16.475C19.1977 16.475 19.0783 16.5227 18.9896 16.609C18.9007 16.6954 18.85 16.8135 18.85 16.9375C18.85 17.0615 18.9007 17.1796 18.9896 17.266C19.0783 17.3523 19.1977 17.4 19.3214 17.4C20.3815 17.4 21.2106 17.1066 21.7561 16.5017L21.7562 16.5016C22.5357 15.6363 22.391 14.4967 22.3837 14.4398L22.3837 14.4393L22.3835 14.4381C22.3683 14.3256 22.3117 14.2232 22.2254 14.1497C22.1392 14.0762 22.0292 14.0362 21.916 14.0363C21.916 14.0363 21.916 14.0363 21.9159 14.0363H19.6387L23.9369 5.8293L26.1133 9.07642C24.4402 10.3004 23.35 12.2443 23.35 14.4375C23.35 18.143 26.449 21.15 30.25 21.15C34.051 21.15 37.15 18.143 37.15 14.4375C37.15 10.732 34.051 7.725 30.25 7.725C29.0361 7.725 27.8979 8.03671 26.9061 8.57443L22.7673 2.4H28.4977C28.4698 2.69205 28.3748 3.07958 28.0959 3.39121C27.758 3.76768 27.1976 3.975 26.3929 3.975C26.2692 3.975 26.1497 4.02273 26.061 4.10898C25.9722 4.19537 25.9214 4.31345 25.9214 4.4375C25.9214 4.56155 25.9722 4.67963 26.061 4.76602C26.1497 4.85227 26.2692 4.9 26.3929 4.9C27.4412 4.9 28.2619 4.60695 28.8034 4.0026L28.8035 4.00256C29.2034 3.55594 29.3609 3.03448 29.4187 2.62435C29.4758 2.21856 29.4366 1.91239 29.431 1.87403ZM29.431 1.87403L29.2825 1.895L29.4309 1.87291C29.4309 1.87326 29.431 1.87363 29.431 1.87403ZM30.707 14.2446L27.4253 9.34909C28.2911 8.89095 29.2621 8.65012 30.25 8.65C33.5385 8.65 36.2071 11.2505 36.2071 14.4375C36.2071 17.6245 33.5385 20.225 30.25 20.225C26.9615 20.225 24.2929 17.6245 24.2929 14.4375C24.2929 12.5706 25.2113 10.9099 26.6327 9.85034L29.919 14.7529L29.9194 14.7534C29.9885 14.8557 30.0957 14.9262 30.2166 14.951C30.3375 14.9758 30.4638 14.9533 30.5683 14.8876L30.5692 14.887C30.6734 14.8205 30.7474 14.7159 30.7737 14.595C30.7999 14.474 30.7758 14.3481 30.7073 14.2451L30.707 14.2446ZM22.9992 5.525L18.8328 13.5506L13.901 5.525H22.9992ZM13.1173 6.11301L18.0285 14.0363H14.6297C14.5654 12.9945 14.2519 11.9813 13.7137 11.0774C13.1755 10.1737 12.4282 9.4056 11.5323 8.83351L13.1173 6.11301ZM12.9008 11.5451C13.3544 12.3074 13.6223 13.1596 13.6854 14.0363H8.50023L11.0637 9.6369C11.8176 10.1283 12.4461 10.7809 12.9008 11.5451ZM7.75 20.225C4.46155 20.225 1.79286 17.6245 1.79286 14.4375C1.79286 11.2505 4.46155 8.65 7.75 8.65C8.63908 8.65 9.48081 8.84558 10.2402 9.18718L7.27856 14.2686C7.27856 14.2686 7.27855 14.2686 7.27855 14.2686C7.23723 14.3392 7.21557 14.4194 7.21608 14.5012C7.21658 14.5828 7.23916 14.6627 7.28121 14.7326C7.3228 14.8021 7.38684 14.8668 7.47174 14.9006C7.54943 14.9316 7.63613 14.9332 7.72043 14.8994H13.6759C13.4037 17.9029 10.856 20.225 7.75 20.225Z" fill="#33CB98" stroke="#33CB98" stroke-width="0.3"/>
</svg>
