<svg width="32" height="32" viewBox="0 0 32 32" fill="none" xmlns="http://www.w3.org/2000/svg">
<g id="Property Icons">
<path id="Rectangle 9" d="M25.3327 28.9744L23.9993 27.1795M5.99935 28.9744L7.33268 27.1795M14.666 20H29.3327V20C27.6747 24.4638 23.8264 27.7529 19.1588 28.6954L18.8386 28.76C16.9647 29.1384 15.034 29.1384 13.1601 28.76L12.8399 28.6954C8.17233 27.7529 4.324 24.4638 2.66602 20V20H9.33268M9.33268 23.3333H14.666" stroke="#054731" stroke-width="1.5" stroke-linecap="round" stroke-linejoin="round"/>
<path id="Ellipse 3" d="M18.666 6.66663C16.4569 6.66663 14.666 8.45749 14.666 10.6666H22.666C22.666 8.45749 20.8752 6.66663 18.666 6.66663Z" stroke="#054731" stroke-width="1.5" stroke-linejoin="round"/>
<path id="Vector 5" d="M25.3327 20V5.99996C25.3327 4.15901 23.8403 2.66663 21.9993 2.66663V2.66663C20.1584 2.66663 18.666 4.15901 18.666 5.99996V7.18837" stroke="#054731" stroke-width="1.5" stroke-linejoin="round"/>
<rect id="Rectangle 14" x="9.33398" y="18.6666" width="5.33333" height="6.66667" stroke="#054731" stroke-width="1.5" stroke-linejoin="round"/>
</g>
</svg>
