<svg width="38" height="23" viewBox="0 0 38 23" fill="none" xmlns="http://www.w3.org/2000/svg">
<g opacity="0.5">
<path d="M31.1575 3.02372V9.3246H33.9644C35.6409 9.3246 37 10.6837 37 12.3602V18.1663C37 18.7252 36.547 19.1782 35.9881 19.1782H2.01186C1.45302 19.1782 1 18.7252 1 18.1663V2.01186C1 1.45302 1.45302 1 2.01186 1H29.1338C30.2515 1 31.1575 1.90605 31.1575 3.02372Z" stroke="#33CB98" stroke-width="1.01186"/>
<path d="M10.6311 19.3472C10.6311 21.0797 9.20901 22.4939 7.44256 22.4939C5.6761 22.4939 4.25398 21.0797 4.25398 19.3472C4.25398 17.6148 5.6761 16.2005 7.44256 16.2005C9.20901 16.2005 10.6311 17.6148 10.6311 19.3472Z" fill="#E9FEF7" stroke="#33CB98" stroke-width="1.01186"/>
<path d="M33.6643 19.3472C33.6643 21.0797 32.2422 22.4939 30.4758 22.4939C28.7093 22.4939 27.2872 21.0797 27.2872 19.3472C27.2872 17.6148 28.7093 16.2005 30.4758 16.2005C32.2422 16.2005 33.6643 17.6148 33.6643 19.3472Z" fill="#E9FEF7" stroke="#33CB98" stroke-width="1.01186"/>
<path d="M31.1623 4.6521H7.63676C6.34664 4.6521 5.30078 5.69796 5.30078 6.98808V6.98808C5.30078 8.27821 6.34664 9.32407 7.63676 9.32407H31.1623" stroke="#33CB98" stroke-width="1.01186"/>
<path d="M14.4902 4.6521V19.0927" stroke="#33CB98" stroke-width="1.01186"/>
<path d="M22.6562 4.6521V19.0927" stroke="#33CB98" stroke-width="1.01186"/>
</g>
</svg>
