<svg width="25" height="34" viewBox="0 0 25 34" fill="none" xmlns="http://www.w3.org/2000/svg">
<path opacity="0.5" d="M15.8884 6.15322C15.6739 6.18658 15.4467 6.19446 15.231 6.1674L15.1856 6.16154C12.3218 5.80676 11.6147 0.42308 15.2149 0.0179337C19.3336 -0.36341 19.1944 5.45588 15.8884 6.15322ZM15.3004 0.988639C12.8915 1.33034 13.5112 5.51976 15.7737 5.1262L15.8361 5.11216C17.368 4.69646 17.9802 1.99491 16.5056 1.20948C16.1794 1.03573 15.667 0.922746 15.3004 0.988639ZM11.3056 26.1235C10.7591 27.0398 9.86841 27.6106 9.02059 28.2212L4.86526 31.2177C4.41 31.5508 3.97222 31.9182 3.49649 32.222C1.41653 33.5507 -0.945644 31.164 0.389116 29.1866C0.619041 28.846 0.941533 28.6013 1.25936 28.3477L6.57211 24.3672C7.17442 23.9071 7.3546 24.0403 7.51002 23.349L8.4204 20.3779C8.45834 20.2688 8.54406 20.1168 8.50291 20.0127C8.07416 18.9272 8.39986 17.9433 8.74719 16.8909L9.99149 12.9423C10.1 12.5848 10.1956 12.2336 10.3458 11.8897C9.97977 12.1855 9.58495 12.4249 9.24236 12.7524C8.04459 13.8972 7.65706 15.672 7.64446 17.2715C7.64082 17.7365 7.60623 18.1899 7.32015 18.5819C6.27482 20.0143 4.13638 19.4175 3.89895 17.5245C3.62912 15.3739 4.55049 12.6353 5.88452 10.9696C7.2691 9.24082 10.8986 6.92299 13.2073 6.66442C15.3748 6.49991 16.9866 8.76782 16.4065 10.7221C16.3298 10.9807 16.7561 11.3329 16.9169 11.521C18.1703 12.9875 19.9083 13.5249 21.7993 13.6434L22.8289 13.6642C23.0201 13.6655 23.2457 13.6474 23.4299 13.6992C24.603 14.0291 25.3962 15.1662 24.7928 16.3312C24.1787 17.5169 22.8739 17.3584 21.7524 17.3583C19.2974 17.3578 17.4759 16.9573 15.4401 15.4174C15.1312 16.0696 14.8836 16.7619 14.615 17.4315C14.2424 18.3606 13.9841 18.2943 14.6774 18.9052L16.1415 20.1801C18.4539 22.166 18.9433 23.0021 19.7435 25.7667L21.0102 30.1366C21.1221 30.529 21.2915 30.9658 21.3238 31.3692C21.526 33.8971 18.5445 34.9504 17.1908 32.9621C16.8278 32.429 16.7332 31.7411 16.5619 31.1292L15.1002 26.1089C14.8627 25.3245 14.7303 25.1192 14.134 24.5401L12.5016 23.0954C12.1632 24.1082 11.8472 25.1979 11.3056 26.1235ZM13.1593 7.65795C12.3427 7.76568 11.5269 8.16937 10.799 8.54311C7.3889 10.2942 4.90445 12.5752 4.88383 16.6729C4.88019 17.3845 4.94683 18.5722 6.01452 18.3339C6.80378 18.1578 6.64502 17.236 6.66519 16.6486C6.7201 15.0538 7.31134 13.2818 8.43234 12.1271C8.83852 11.7087 11.2926 9.69182 11.4904 10.9127C11.6064 11.629 10.3346 15.2832 10.0768 16.0608C9.73826 17.0816 9.09648 18.391 9.35809 19.4955C9.56347 20.3627 9.50673 20.1155 9.23923 21.0192L8.71369 22.7871C8.32958 24.0794 8.50452 24.2062 7.32744 25.0939L1.70989 29.2661C0.983702 29.8266 0.666162 30.685 1.5059 31.3543C2.27811 31.9697 3.03963 31.352 3.679 30.8775L9.13282 26.9266C10.1728 26.1501 10.5321 25.6961 10.9742 24.4699L11.488 22.963C11.7681 22.1127 11.9695 21.2373 12.9553 22.1165L13.5089 22.6128C14.1178 23.1528 14.7781 23.6817 15.3149 24.2936C15.9559 25.0244 16.0731 25.8722 16.3368 26.7763L17.4306 30.5279C17.5989 31.1232 17.717 31.801 18.0072 32.3473C18.6591 33.5743 20.5834 32.975 20.3277 31.4477C20.2646 31.0712 20.1381 30.6879 20.0282 30.3216L18.7083 25.7635C18.5405 25.2057 18.4051 24.6225 18.1561 24.0942C17.4505 22.5969 16.2786 21.6284 15.053 20.5681L14.1645 19.8023C13.3809 19.1251 12.9826 19.0078 13.3657 17.9475L14.6143 14.6623C14.3497 14.3485 13.7021 13.9459 13.7259 13.4948C13.7476 13.0843 14.1977 12.8002 14.5377 13.1129C14.7083 13.2698 14.8445 13.4764 15.0029 13.6474C17.0458 15.8529 19.3326 16.4034 22.1863 16.3929C22.6457 16.3912 23.3325 16.4427 23.7105 16.1447C24.3645 15.6292 23.8048 14.721 23.0673 14.6796C22.5608 14.6512 22.0477 14.7 21.5418 14.6632C19.3079 14.5012 17.5695 13.7458 16.0761 12.107C15.7937 11.797 15.437 11.4037 15.2927 11.0045C15.3557 10.7367 15.4441 10.4754 15.4813 10.2023C15.6618 8.8767 14.5862 7.51854 13.1593 7.65795Z" fill="#33CB98"/>
</svg>
